<svg width="662" height="322" viewBox="0 0 662 322" fill="none" xmlns="http://www.w3.org/2000/svg">
<rect width="662" height="322" rx="8" fill="white"/>
<path d="M76.968 285.2V295H75.596V286.418H69.912V295H68.526V285.2H76.968ZM79.8 287.58H81.144V290.73H85.372V287.58H86.716V295H85.372V291.892H81.144V295H79.8V287.58Z" fill="#BEBEBE"/>
<path d="M169.13 289.918C169.793 290.077 170.292 290.361 170.628 290.772C170.973 291.173 171.146 291.691 171.146 292.326C171.146 293.175 170.833 293.833 170.208 294.3C169.592 294.767 168.691 295 167.506 295H163.026V285.2H167.24C168.313 285.2 169.149 285.419 169.746 285.858C170.353 286.287 170.656 286.908 170.656 287.72C170.656 288.252 170.521 288.705 170.25 289.078C169.989 289.451 169.615 289.731 169.13 289.918ZM164.412 289.512H167.142C167.823 289.512 168.341 289.377 168.696 289.106C169.06 288.835 169.242 288.439 169.242 287.916C169.242 287.393 169.06 286.997 168.696 286.726C168.332 286.446 167.814 286.306 167.142 286.306H164.412V289.512ZM167.478 293.894C168.981 293.894 169.732 293.334 169.732 292.214C169.732 291.654 169.541 291.243 169.158 290.982C168.785 290.711 168.225 290.576 167.478 290.576H164.412V293.894H167.478ZM178.791 288.756H176.075V295H174.731V288.756H172.015V287.58H178.791V288.756Z" fill="#BEBEBE"/>
<path d="M257.908 295.112C256.928 295.112 256.041 294.897 255.248 294.468C254.464 294.029 253.848 293.432 253.4 292.676C252.952 291.911 252.728 291.052 252.728 290.1C252.728 289.148 252.952 288.294 253.4 287.538C253.848 286.773 254.469 286.175 255.262 285.746C256.055 285.307 256.942 285.088 257.922 285.088C258.687 285.088 259.387 285.219 260.022 285.48C260.657 285.732 261.198 286.11 261.646 286.614L260.736 287.496C259.999 286.721 259.079 286.334 257.978 286.334C257.25 286.334 256.592 286.497 256.004 286.824C255.416 287.151 254.954 287.603 254.618 288.182C254.291 288.751 254.128 289.391 254.128 290.1C254.128 290.809 254.291 291.453 254.618 292.032C254.954 292.601 255.416 293.049 256.004 293.376C256.592 293.703 257.25 293.866 257.978 293.866C259.07 293.866 259.989 293.474 260.736 292.69L261.646 293.572C261.198 294.076 260.652 294.459 260.008 294.72C259.373 294.981 258.673 295.112 257.908 295.112ZM267.285 287.51C268.003 287.51 268.647 287.669 269.217 287.986C269.786 288.303 270.229 288.747 270.547 289.316C270.873 289.885 271.037 290.543 271.037 291.29C271.037 292.037 270.873 292.699 270.547 293.278C270.229 293.847 269.786 294.291 269.217 294.608C268.647 294.925 268.003 295.084 267.285 295.084C266.753 295.084 266.263 294.981 265.815 294.776C265.376 294.571 265.003 294.272 264.695 293.88V297.716H263.351V287.58H264.639V288.756C264.937 288.345 265.315 288.037 265.773 287.832C266.23 287.617 266.734 287.51 267.285 287.51ZM267.173 293.908C267.649 293.908 268.073 293.801 268.447 293.586C268.829 293.362 269.128 293.054 269.343 292.662C269.567 292.261 269.679 291.803 269.679 291.29C269.679 290.777 269.567 290.324 269.343 289.932C269.128 289.531 268.829 289.223 268.447 289.008C268.073 288.793 267.649 288.686 267.173 288.686C266.706 288.686 266.281 288.798 265.899 289.022C265.525 289.237 265.227 289.54 265.003 289.932C264.788 290.324 264.681 290.777 264.681 291.29C264.681 291.803 264.788 292.261 265.003 292.662C265.217 293.054 265.516 293.362 265.899 293.586C266.281 293.801 266.706 293.908 267.173 293.908Z" fill="#BEBEBE"/>
<path d="M353.278 285.2V295H351.892V291.122C350.856 291.523 349.899 291.724 349.022 291.724C347.827 291.724 346.899 291.435 346.236 290.856C345.583 290.277 345.256 289.451 345.256 288.378V285.2H346.628V288.224C346.628 288.952 346.847 289.512 347.286 289.904C347.734 290.296 348.364 290.492 349.176 290.492C350.081 290.492 350.987 290.287 351.892 289.876V285.2H353.278ZM361.641 288.756H358.925V295H357.581V288.756H354.865V287.58H361.641V288.756Z" fill="#BEBEBE"/>
<path d="M444.968 285.2V295H443.596V286.418H437.912V295H436.526V285.2H444.968ZM453.33 288.756H450.614V295H449.27V288.756H446.554V287.58H453.33V288.756Z" fill="#BEBEBE"/>
<path d="M532.408 295.112C531.428 295.112 530.541 294.897 529.748 294.468C528.964 294.029 528.348 293.432 527.9 292.676C527.452 291.911 527.228 291.052 527.228 290.1C527.228 289.148 527.452 288.294 527.9 287.538C528.348 286.773 528.969 286.175 529.762 285.746C530.555 285.307 531.442 285.088 532.422 285.088C533.187 285.088 533.887 285.219 534.522 285.48C535.157 285.732 535.698 286.11 536.146 286.614L535.236 287.496C534.499 286.721 533.579 286.334 532.478 286.334C531.75 286.334 531.092 286.497 530.504 286.824C529.916 287.151 529.454 287.603 529.118 288.182C528.791 288.751 528.628 289.391 528.628 290.1C528.628 290.809 528.791 291.453 529.118 292.032C529.454 292.601 529.916 293.049 530.504 293.376C531.092 293.703 531.75 293.866 532.478 293.866C533.57 293.866 534.489 293.474 535.236 292.69L536.146 293.572C535.698 294.076 535.152 294.459 534.508 294.72C533.873 294.981 533.173 295.112 532.408 295.112ZM541.426 287.832C542.116 287.832 542.732 287.986 543.274 288.294C543.815 288.602 544.235 289.031 544.534 289.582C544.842 290.123 544.996 290.744 544.996 291.444C544.996 292.163 544.832 292.802 544.506 293.362C544.188 293.913 543.736 294.342 543.148 294.65C542.569 294.958 541.906 295.112 541.16 295.112C539.9 295.112 538.924 294.683 538.234 293.824C537.552 292.956 537.212 291.738 537.212 290.17C537.212 288.649 537.524 287.459 538.15 286.6C538.775 285.732 539.732 285.158 541.02 284.878L544.408 284.122L544.604 285.354L541.482 286.026C540.511 286.241 539.788 286.605 539.312 287.118C538.836 287.631 538.565 288.369 538.5 289.33C538.817 288.854 539.228 288.485 539.732 288.224C540.236 287.963 540.8 287.832 541.426 287.832ZM541.188 293.992C541.664 293.992 542.084 293.885 542.448 293.67C542.821 293.455 543.11 293.161 543.316 292.788C543.521 292.405 543.624 291.971 543.624 291.486C543.624 290.749 543.4 290.156 542.952 289.708C542.504 289.26 541.916 289.036 541.188 289.036C540.46 289.036 539.867 289.26 539.41 289.708C538.962 290.156 538.738 290.749 538.738 291.486C538.738 291.971 538.84 292.405 539.046 292.788C539.26 293.161 539.554 293.455 539.928 293.67C540.301 293.885 540.721 293.992 541.188 293.992Z" fill="#BEBEBE"/>
<path d="M626.63 289.918C627.293 290.077 627.792 290.361 628.128 290.772C628.473 291.173 628.646 291.691 628.646 292.326C628.646 293.175 628.333 293.833 627.708 294.3C627.092 294.767 626.191 295 625.006 295H620.526V285.2H624.74C625.813 285.2 626.649 285.419 627.246 285.858C627.853 286.287 628.156 286.908 628.156 287.72C628.156 288.252 628.021 288.705 627.75 289.078C627.489 289.451 627.115 289.731 626.63 289.918ZM621.912 289.512H624.642C625.323 289.512 625.841 289.377 626.196 289.106C626.56 288.835 626.742 288.439 626.742 287.916C626.742 287.393 626.56 286.997 626.196 286.726C625.832 286.446 625.314 286.306 624.642 286.306H621.912V289.512ZM624.978 293.894C626.481 293.894 627.232 293.334 627.232 292.214C627.232 291.654 627.041 291.243 626.658 290.982C626.285 290.711 625.725 290.576 624.978 290.576H621.912V293.894H624.978ZM633.995 295.084C633.239 295.084 632.562 294.921 631.965 294.594C631.377 294.267 630.915 293.819 630.579 293.25C630.243 292.671 630.075 292.018 630.075 291.29C630.075 290.562 630.243 289.913 630.579 289.344C630.915 288.765 631.377 288.317 631.965 288C632.562 287.673 633.239 287.51 633.995 287.51C634.667 287.51 635.264 287.645 635.787 287.916C636.319 288.187 636.73 288.579 637.019 289.092L635.997 289.75C635.764 289.395 635.474 289.129 635.129 288.952C634.784 288.775 634.401 288.686 633.981 288.686C633.496 288.686 633.057 288.793 632.665 289.008C632.282 289.223 631.979 289.531 631.755 289.932C631.54 290.324 631.433 290.777 631.433 291.29C631.433 291.813 631.54 292.275 631.755 292.676C631.979 293.068 632.282 293.371 632.665 293.586C633.057 293.801 633.496 293.908 633.981 293.908C634.401 293.908 634.784 293.819 635.129 293.642C635.474 293.465 635.764 293.199 635.997 292.844L637.019 293.488C636.73 294.001 636.319 294.398 635.787 294.678C635.264 294.949 634.667 295.084 633.995 295.084Z" fill="#BEBEBE"/>
<path d="M38.6573 26.84H33.0893V41H29.9933V26.84H24.4493V24.2H38.6573V26.84ZM47.8114 28.04C49.0594 28.04 50.1714 28.312 51.1474 28.856C52.1394 29.4 52.9154 30.168 53.4754 31.16C54.0354 32.152 54.3154 33.296 54.3154 34.592C54.3154 35.888 54.0354 37.04 53.4754 38.048C52.9154 39.04 52.1394 39.808 51.1474 40.352C50.1714 40.896 49.0594 41.168 47.8114 41.168C46.0834 41.168 44.7154 40.592 43.7074 39.44V45.656H40.7074V28.184H43.5634V29.864C44.0594 29.256 44.6674 28.8 45.3874 28.496C46.1234 28.192 46.9314 28.04 47.8114 28.04ZM47.4754 38.6C48.5794 38.6 49.4834 38.232 50.1874 37.496C50.9074 36.76 51.2674 35.792 51.2674 34.592C51.2674 33.392 50.9074 32.424 50.1874 31.688C49.4834 30.952 48.5794 30.584 47.4754 30.584C46.7554 30.584 46.1074 30.752 45.5314 31.088C44.9554 31.408 44.4994 31.872 44.1634 32.48C43.8274 33.088 43.6594 33.792 43.6594 34.592C43.6594 35.392 43.8274 36.096 44.1634 36.704C44.4994 37.312 44.9554 37.784 45.5314 38.12C46.1074 38.44 46.7554 38.6 47.4754 38.6ZM69.3012 34.664C69.3012 34.872 69.2852 35.168 69.2532 35.552H59.1972C59.3732 36.496 59.8292 37.248 60.5652 37.808C61.3172 38.352 62.2452 38.624 63.3492 38.624C64.7572 38.624 65.9172 38.16 66.8292 37.232L68.4372 39.08C67.8612 39.768 67.1332 40.288 66.2532 40.64C65.3732 40.992 64.3812 41.168 63.2772 41.168C61.8692 41.168 60.6292 40.888 59.5572 40.328C58.4852 39.768 57.6532 38.992 57.0612 38C56.4852 36.992 56.1972 35.856 56.1972 34.592C56.1972 33.344 56.4772 32.224 57.0372 31.232C57.6132 30.224 58.4052 29.44 59.4132 28.88C60.4212 28.32 61.5572 28.04 62.8212 28.04C64.0692 28.04 65.1812 28.32 66.1572 28.88C67.1492 29.424 67.9172 30.2 68.4612 31.208C69.0212 32.2 69.3012 33.352 69.3012 34.664ZM62.8212 30.44C61.8612 30.44 61.0452 30.728 60.3732 31.304C59.7172 31.864 59.3172 32.616 59.1732 33.56H66.4452C66.3172 32.632 65.9252 31.88 65.2692 31.304C64.6132 30.728 63.7972 30.44 62.8212 30.44ZM72.5824 28.184H75.5824V33.392H82.0384V28.184H85.0384V41H82.0384V35.936H75.5824V41H72.5824V28.184ZM102.739 38.456V43.856H99.931V41H90.043V43.856H87.259V38.456H87.859C88.675 38.424 89.227 37.904 89.515 36.896C89.819 35.872 90.019 34.432 90.115 32.576L90.283 28.184H100.843V38.456H102.739ZM92.851 32.792C92.787 34.264 92.667 35.464 92.491 36.392C92.315 37.32 91.995 38.008 91.531 38.456H97.843V30.728H92.923L92.851 32.792ZM111.658 32.408C113.29 32.408 114.538 32.776 115.402 33.512C116.266 34.248 116.698 35.288 116.698 36.632C116.698 38.04 116.218 39.128 115.258 39.896C114.314 40.664 112.97 41.04 111.226 41.024L105.418 41V28.184H108.418V32.384L111.658 32.408ZM118.354 28.184H121.354V41H118.354V28.184ZM110.962 38.816C111.842 38.832 112.514 38.648 112.978 38.264C113.442 37.88 113.674 37.32 113.674 36.584C113.674 35.864 113.45 35.336 113.002 35C112.554 34.664 111.874 34.488 110.962 34.472L108.418 34.448V38.792L110.962 38.816ZM144.308 28.184V41H141.332V30.728H135.02V41H132.02V28.184H144.308ZM155.46 28.04C156.708 28.04 157.82 28.312 158.796 28.856C159.788 29.4 160.564 30.168 161.124 31.16C161.684 32.152 161.964 33.296 161.964 34.592C161.964 35.888 161.684 37.04 161.124 38.048C160.564 39.04 159.788 39.808 158.796 40.352C157.82 40.896 156.708 41.168 155.46 41.168C153.732 41.168 152.364 40.592 151.356 39.44V45.656H148.356V28.184H151.212V29.864C151.708 29.256 152.316 28.8 153.036 28.496C153.772 28.192 154.58 28.04 155.46 28.04ZM155.124 38.6C156.228 38.6 157.132 38.232 157.836 37.496C158.556 36.76 158.916 35.792 158.916 34.592C158.916 33.392 158.556 32.424 157.836 31.688C157.132 30.952 156.228 30.584 155.124 30.584C154.404 30.584 153.756 30.752 153.18 31.088C152.604 31.408 152.148 31.872 151.812 32.48C151.476 33.088 151.308 33.792 151.308 34.592C151.308 35.392 151.476 36.096 151.812 36.704C152.148 37.312 152.604 37.784 153.18 38.12C153.756 38.44 154.404 38.6 155.124 38.6ZM170.662 41.168C169.366 41.168 168.198 40.888 167.158 40.328C166.118 39.768 165.302 38.992 164.71 38C164.134 36.992 163.846 35.856 163.846 34.592C163.846 33.328 164.134 32.2 164.71 31.208C165.302 30.216 166.118 29.44 167.158 28.88C168.198 28.32 169.366 28.04 170.662 28.04C171.974 28.04 173.15 28.32 174.19 28.88C175.23 29.44 176.038 30.216 176.614 31.208C177.206 32.2 177.502 33.328 177.502 34.592C177.502 35.856 177.206 36.992 176.614 38C176.038 38.992 175.23 39.768 174.19 40.328C173.15 40.888 171.974 41.168 170.662 41.168ZM170.662 38.6C171.766 38.6 172.678 38.232 173.398 37.496C174.118 36.76 174.478 35.792 174.478 34.592C174.478 33.392 174.118 32.424 173.398 31.688C172.678 30.952 171.766 30.584 170.662 30.584C169.558 30.584 168.646 30.952 167.926 31.688C167.222 32.424 166.87 33.392 166.87 34.592C166.87 35.792 167.222 36.76 167.926 37.496C168.646 38.232 169.558 38.6 170.662 38.6ZM194.005 38.456V43.856H191.197V41H181.309V43.856H178.525V38.456H179.125C179.941 38.424 180.493 37.904 180.781 36.896C181.085 35.872 181.285 34.432 181.381 32.576L181.549 28.184H192.109V38.456H194.005ZM184.117 32.792C184.053 34.264 183.933 35.464 183.757 36.392C183.581 37.32 183.261 38.008 182.797 38.456H189.109V30.728H184.189L184.117 32.792ZM201.46 28.04C203.348 28.04 204.788 28.496 205.78 29.408C206.788 30.304 207.292 31.664 207.292 33.488V41H204.46V39.44C204.092 40 203.564 40.432 202.876 40.736C202.204 41.024 201.388 41.168 200.428 41.168C199.468 41.168 198.628 41.008 197.908 40.688C197.188 40.352 196.628 39.896 196.228 39.32C195.844 38.728 195.652 38.064 195.652 37.328C195.652 36.176 196.076 35.256 196.924 34.568C197.788 33.864 199.14 33.512 200.98 33.512H204.292V33.32C204.292 32.424 204.02 31.736 203.476 31.256C202.948 30.776 202.156 30.536 201.1 30.536C200.38 30.536 199.668 30.648 198.964 30.872C198.276 31.096 197.692 31.408 197.212 31.808L196.036 29.624C196.708 29.112 197.516 28.72 198.46 28.448C199.404 28.176 200.404 28.04 201.46 28.04ZM201.052 38.984C201.804 38.984 202.468 38.816 203.044 38.48C203.636 38.128 204.052 37.632 204.292 36.992V35.504H201.196C199.468 35.504 198.604 36.072 198.604 37.208C198.604 37.752 198.82 38.184 199.252 38.504C199.684 38.824 200.284 38.984 201.052 38.984ZM223.172 35.864H221.012V41H218.036V35.864H215.876L212.756 41H209.204L213.404 34.376L209.516 28.184H212.708L215.828 33.368H218.036V28.184H221.012V33.368H223.196L226.34 28.184H229.532L225.644 34.376L229.868 41H226.292L223.172 35.864Z" fill="black"/>
<path d="M67 73H638" stroke="#E8E8E8" stroke-linecap="round"/>
<path d="M67 121H638" stroke="#E8E8E8" stroke-linecap="round"/>
<path d="M67 169H638" stroke="#E8E8E8" stroke-linecap="round"/>
<path d="M67 217H638" stroke="#E8E8E8" stroke-linecap="round"/>
<path d="M67 265H638" stroke="#E8E8E8" stroke-linecap="round"/>
<path d="M78.5 239.5L172.5 192L265.5 174.5L354 178L434.5 146L532.5 120.5L623.5 95.5" stroke="#0061D9" stroke-width="2" stroke-linecap="round"/>
<circle cx="171" cy="193" r="3.5" fill="#0061D9" stroke="white"/>
<circle cx="79" cy="239" r="3.5" fill="#0061D9" stroke="white"/>
<circle cx="266" cy="174" r="3.5" fill="#0061D9" stroke="white"/>
<circle cx="354" cy="178" r="3.5" fill="#0061D9" stroke="white"/>
<circle cx="446" cy="143" r="3.5" fill="#0061D9" stroke="white"/>
<circle cx="529" cy="121" r="3.5" fill="#0061D9" stroke="white"/>
<circle cx="624" cy="96" r="3.5" fill="#0061D9" stroke="white"/>
<path d="M78 199L172.5 168L265.5 164L353 142.5L445 129H527L624.5 120.5" stroke="#00D93D" stroke-width="2" stroke-linecap="round"/>
<circle cx="171" cy="168" r="3.5" fill="#00D93D" stroke="white"/>
<circle cx="79" cy="199" r="3.5" fill="#00D93D" stroke="white"/>
<circle cx="266" cy="163" r="3.5" fill="#00D93D" stroke="white"/>
<circle cx="354" cy="143" r="3.5" fill="#00D93D" stroke="white"/>
<circle cx="446" cy="129" r="3.5" fill="#00D93D" stroke="white"/>
<circle cx="529" cy="129" r="3.5" fill="#00D93D" stroke="white"/>
<circle cx="624" cy="120" r="3.5" fill="#00D93D" stroke="white"/>
<path d="M79 169L172 146L266 138L354.5 117.5L447 112.5L529 94.5L624.5 108.5" stroke="#F0D90B" stroke-width="2" stroke-linecap="round"/>
<circle cx="79" cy="169" r="3.5" fill="#F0D90B" stroke="white"/>
<circle cx="171" cy="146" r="3.5" fill="#F0D90B" stroke="white"/>
<circle cx="266" cy="138" r="3.5" fill="#F0D90B" stroke="white"/>
<circle cx="354" cy="117" r="3.5" fill="#F0D90B" stroke="white"/>
<circle cx="446" cy="112" r="3.5" fill="#F0D90B" stroke="white"/>
<circle cx="529" cy="95" r="3.5" fill="#F0D90B" stroke="white"/>
<circle cx="624" cy="109" r="3.5" fill="#F0D90B" stroke="white"/>
<path d="M77.5 217H172L263.5 194L353.5 161L446 194L529.5 162.5L623 146.5" stroke="#DD0000" stroke-width="2" stroke-linecap="round"/>
<circle cx="79" cy="217" r="3.5" fill="#DD0000" stroke="white"/>
<circle cx="171" cy="217" r="3.5" fill="#DD0000" stroke="white"/>
<circle cx="266" cy="193" r="3.5" fill="#DD0000" stroke="white"/>
<circle cx="354" cy="161" r="3.5" fill="#DD0000" stroke="white"/>
<circle cx="446" cy="194" r="3.5" fill="#DD0000" stroke="white"/>
<circle cx="529" cy="163" r="3.5" fill="#DD0000" stroke="white"/>
<circle cx="624" cy="147" r="3.5" fill="#DD0000" stroke="white"/>
<path d="M36.472 263.106C37.872 263.106 38.8987 263.372 39.552 263.904C40.2147 264.427 40.546 265.145 40.546 266.06C40.546 266.639 40.406 267.161 40.126 267.628C39.8553 268.085 39.44 268.449 38.88 268.72C38.3293 268.981 37.648 269.112 36.836 269.112C36.1453 269.112 35.478 269.009 34.834 268.804C34.19 268.589 33.658 268.295 33.238 267.922L33.882 266.816C34.218 267.133 34.6473 267.39 35.17 267.586C35.6927 267.773 36.2433 267.866 36.822 267.866C37.5593 267.866 38.1287 267.712 38.53 267.404C38.9407 267.087 39.146 266.657 39.146 266.116C39.146 265.528 38.922 265.085 38.474 264.786C38.026 264.478 37.2607 264.324 36.178 264.324H33.952L34.47 259.2H40V260.418H35.646L35.38 263.106H36.472ZM45.7151 269.112C44.9404 269.112 44.2497 268.916 43.6431 268.524C43.0457 268.123 42.5744 267.544 42.2291 266.788C41.8837 266.032 41.7111 265.136 41.7111 264.1C41.7111 263.064 41.8837 262.168 42.2291 261.412C42.5744 260.656 43.0457 260.082 43.6431 259.69C44.2497 259.289 44.9404 259.088 45.7151 259.088C46.4804 259.088 47.1617 259.289 47.7591 259.69C48.3657 260.082 48.8417 260.656 49.1871 261.412C49.5324 262.168 49.7051 263.064 49.7051 264.1C49.7051 265.136 49.5324 266.032 49.1871 266.788C48.8417 267.544 48.3657 268.123 47.7591 268.524C47.1617 268.916 46.4804 269.112 45.7151 269.112ZM45.7151 267.866C46.4991 267.866 47.1244 267.544 47.5911 266.9C48.0671 266.256 48.3051 265.323 48.3051 264.1C48.3051 262.877 48.0671 261.944 47.5911 261.3C47.1244 260.656 46.4991 260.334 45.7151 260.334C44.9217 260.334 44.2871 260.656 43.8111 261.3C43.3444 261.944 43.1111 262.877 43.1111 264.1C43.1111 265.323 43.3444 266.256 43.8111 266.9C44.2871 267.544 44.9217 267.866 45.7151 267.866Z" fill="#BEBEBE"/>
<path d="M30.71 211.2V221H29.324V212.418H27.112V211.2H30.71ZM36.8576 221.112C36.083 221.112 35.3923 220.916 34.7856 220.524C34.1883 220.123 33.717 219.544 33.3716 218.788C33.0263 218.032 32.8536 217.136 32.8536 216.1C32.8536 215.064 33.0263 214.168 33.3716 213.412C33.717 212.656 34.1883 212.082 34.7856 211.69C35.3923 211.289 36.083 211.088 36.8576 211.088C37.623 211.088 38.3043 211.289 38.9016 211.69C39.5083 212.082 39.9843 212.656 40.3296 213.412C40.675 214.168 40.8476 215.064 40.8476 216.1C40.8476 217.136 40.675 218.032 40.3296 218.788C39.9843 219.544 39.5083 220.123 38.9016 220.524C38.3043 220.916 37.623 221.112 36.8576 221.112ZM36.8576 219.866C37.6416 219.866 38.267 219.544 38.7336 218.9C39.2096 218.256 39.4476 217.323 39.4476 216.1C39.4476 214.877 39.2096 213.944 38.7336 213.3C38.267 212.656 37.6416 212.334 36.8576 212.334C36.0643 212.334 35.4296 212.656 34.9536 213.3C34.487 213.944 34.2536 214.877 34.2536 216.1C34.2536 217.323 34.487 218.256 34.9536 218.9C35.4296 219.544 36.0643 219.866 36.8576 219.866ZM46.1955 221.112C45.4209 221.112 44.7302 220.916 44.1235 220.524C43.5262 220.123 43.0549 219.544 42.7095 218.788C42.3642 218.032 42.1915 217.136 42.1915 216.1C42.1915 215.064 42.3642 214.168 42.7095 213.412C43.0549 212.656 43.5262 212.082 44.1235 211.69C44.7302 211.289 45.4209 211.088 46.1955 211.088C46.9609 211.088 47.6422 211.289 48.2395 211.69C48.8462 212.082 49.3222 212.656 49.6675 213.412C50.0129 214.168 50.1855 215.064 50.1855 216.1C50.1855 217.136 50.0129 218.032 49.6675 218.788C49.3222 219.544 48.8462 220.123 48.2395 220.524C47.6422 220.916 46.9609 221.112 46.1955 221.112ZM46.1955 219.866C46.9795 219.866 47.6049 219.544 48.0715 218.9C48.5475 218.256 48.7855 217.323 48.7855 216.1C48.7855 214.877 48.5475 213.944 48.0715 213.3C47.6049 212.656 46.9795 212.334 46.1955 212.334C45.4022 212.334 44.7675 212.656 44.2915 213.3C43.8249 213.944 43.5915 214.877 43.5915 216.1C43.5915 217.323 43.8249 218.256 44.2915 218.9C44.7675 219.544 45.4022 219.866 46.1955 219.866Z" fill="#BEBEBE"/>
<path d="M31.71 163.2V173H30.324V164.418H28.112V163.2H31.71ZM36.6536 167.106C38.0536 167.106 39.0803 167.372 39.7336 167.904C40.3963 168.427 40.7276 169.145 40.7276 170.06C40.7276 170.639 40.5876 171.161 40.3076 171.628C40.037 172.085 39.6216 172.449 39.0616 172.72C38.511 172.981 37.8296 173.112 37.0176 173.112C36.327 173.112 35.6596 173.009 35.0156 172.804C34.3716 172.589 33.8396 172.295 33.4196 171.922L34.0636 170.816C34.3996 171.133 34.829 171.39 35.3516 171.586C35.8743 171.773 36.425 171.866 37.0036 171.866C37.741 171.866 38.3103 171.712 38.7116 171.404C39.1223 171.087 39.3276 170.657 39.3276 170.116C39.3276 169.528 39.1036 169.085 38.6556 168.786C38.2076 168.478 37.4423 168.324 36.3596 168.324H34.1336L34.6516 163.2H40.1816V164.418H35.8276L35.5616 167.106H36.6536ZM45.8967 173.112C45.122 173.112 44.4314 172.916 43.8247 172.524C43.2274 172.123 42.756 171.544 42.4107 170.788C42.0654 170.032 41.8927 169.136 41.8927 168.1C41.8927 167.064 42.0654 166.168 42.4107 165.412C42.756 164.656 43.2274 164.082 43.8247 163.69C44.4314 163.289 45.122 163.088 45.8967 163.088C46.662 163.088 47.3434 163.289 47.9407 163.69C48.5474 164.082 49.0234 164.656 49.3687 165.412C49.714 166.168 49.8867 167.064 49.8867 168.1C49.8867 169.136 49.714 170.032 49.3687 170.788C49.0234 171.544 48.5474 172.123 47.9407 172.524C47.3434 172.916 46.662 173.112 45.8967 173.112ZM45.8967 171.866C46.6807 171.866 47.306 171.544 47.7727 170.9C48.2487 170.256 48.4867 169.323 48.4867 168.1C48.4867 166.877 48.2487 165.944 47.7727 165.3C47.306 164.656 46.6807 164.334 45.8967 164.334C45.1034 164.334 44.4687 164.656 43.9927 165.3C43.526 165.944 43.2927 166.877 43.2927 168.1C43.2927 169.323 43.526 170.256 43.9927 170.9C44.4687 171.544 45.1034 171.866 45.8967 171.866Z" fill="#BEBEBE"/>
<path d="M31.56 123.782V125H24.518V124.048L28.508 120.198C28.9933 119.731 29.32 119.33 29.488 118.994C29.656 118.649 29.74 118.303 29.74 117.958C29.74 117.445 29.558 117.048 29.194 116.768C28.8393 116.479 28.326 116.334 27.654 116.334C26.5713 116.334 25.736 116.689 25.148 117.398L24.196 116.572C24.5787 116.105 25.078 115.741 25.694 115.48C26.3193 115.219 27.0147 115.088 27.78 115.088C28.8067 115.088 29.6233 115.335 30.23 115.83C30.8367 116.315 31.14 116.978 31.14 117.818C31.14 118.341 31.028 118.835 30.804 119.302C30.58 119.769 30.1553 120.301 29.53 120.898L26.534 123.782H31.56ZM36.674 125.112C35.8994 125.112 35.2087 124.916 34.602 124.524C34.0047 124.123 33.5334 123.544 33.188 122.788C32.8427 122.032 32.67 121.136 32.67 120.1C32.67 119.064 32.8427 118.168 33.188 117.412C33.5334 116.656 34.0047 116.082 34.602 115.69C35.2087 115.289 35.8994 115.088 36.674 115.088C37.4394 115.088 38.1207 115.289 38.718 115.69C39.3247 116.082 39.8007 116.656 40.146 117.412C40.4914 118.168 40.664 119.064 40.664 120.1C40.664 121.136 40.4914 122.032 40.146 122.788C39.8007 123.544 39.3247 124.123 38.718 124.524C38.1207 124.916 37.4394 125.112 36.674 125.112ZM36.674 123.866C37.458 123.866 38.0834 123.544 38.55 122.9C39.026 122.256 39.264 121.323 39.264 120.1C39.264 118.877 39.026 117.944 38.55 117.3C38.0834 116.656 37.458 116.334 36.674 116.334C35.8807 116.334 35.246 116.656 34.77 117.3C34.3034 117.944 34.07 118.877 34.07 120.1C34.07 121.323 34.3034 122.256 34.77 122.9C35.246 123.544 35.8807 123.866 36.674 123.866ZM46.0119 125.112C45.2373 125.112 44.5466 124.916 43.9399 124.524C43.3426 124.123 42.8713 123.544 42.5259 122.788C42.1806 122.032 42.0079 121.136 42.0079 120.1C42.0079 119.064 42.1806 118.168 42.5259 117.412C42.8713 116.656 43.3426 116.082 43.9399 115.69C44.5466 115.289 45.2373 115.088 46.0119 115.088C46.7773 115.088 47.4586 115.289 48.0559 115.69C48.6626 116.082 49.1386 116.656 49.4839 117.412C49.8293 118.168 50.0019 119.064 50.0019 120.1C50.0019 121.136 49.8293 122.032 49.4839 122.788C49.1386 123.544 48.6626 124.123 48.0559 124.524C47.4586 124.916 46.7773 125.112 46.0119 125.112ZM46.0119 123.866C46.7959 123.866 47.4213 123.544 47.8879 122.9C48.3639 122.256 48.6019 121.323 48.6019 120.1C48.6019 118.877 48.3639 117.944 47.8879 117.3C47.4213 116.656 46.7959 116.334 46.0119 116.334C45.2186 116.334 44.5839 116.656 44.1079 117.3C43.6413 117.944 43.4079 118.877 43.4079 120.1C43.4079 121.323 43.6413 122.256 44.1079 122.9C44.5839 123.544 45.2186 123.866 46.0119 123.866Z" fill="#BEBEBE"/>
<path d="M32.56 75.782V77H25.518V76.048L29.508 72.198C29.9933 71.7313 30.32 71.33 30.488 70.994C30.656 70.6487 30.74 70.3033 30.74 69.958C30.74 69.4447 30.558 69.048 30.194 68.768C29.8393 68.4787 29.326 68.334 28.654 68.334C27.5713 68.334 26.736 68.6887 26.148 69.398L25.196 68.572C25.5787 68.1053 26.078 67.7413 26.694 67.48C27.3193 67.2187 28.0147 67.088 28.78 67.088C29.8067 67.088 30.6233 67.3353 31.23 67.83C31.8367 68.3153 32.14 68.978 32.14 69.818C32.14 70.3407 32.028 70.8353 31.804 71.302C31.58 71.7687 31.1553 72.3007 30.53 72.898L27.534 75.782H32.56ZM36.5111 71.106C37.9111 71.106 38.9377 71.372 39.5911 71.904C40.2537 72.4267 40.5851 73.1453 40.5851 74.06C40.5851 74.6387 40.4451 75.1613 40.1651 75.628C39.8944 76.0853 39.4791 76.4493 38.9191 76.72C38.3684 76.9813 37.6871 77.112 36.8751 77.112C36.1844 77.112 35.5171 77.0093 34.8731 76.804C34.2291 76.5893 33.6971 76.2953 33.2771 75.922L33.9211 74.816C34.2571 75.1333 34.6864 75.39 35.2091 75.586C35.7317 75.7727 36.2824 75.866 36.8611 75.866C37.5984 75.866 38.1677 75.712 38.5691 75.404C38.9797 75.0867 39.1851 74.6573 39.1851 74.116C39.1851 73.528 38.9611 73.0847 38.5131 72.786C38.0651 72.478 37.2997 72.324 36.2171 72.324H33.9911L34.5091 67.2H40.0391V68.418H35.6851L35.4191 71.106H36.5111ZM45.7541 77.112C44.9795 77.112 44.2888 76.916 43.6821 76.524C43.0848 76.1227 42.6135 75.544 42.2681 74.788C41.9228 74.032 41.7501 73.136 41.7501 72.1C41.7501 71.064 41.9228 70.168 42.2681 69.412C42.6135 68.656 43.0848 68.082 43.6821 67.69C44.2888 67.2887 44.9795 67.088 45.7541 67.088C46.5195 67.088 47.2008 67.2887 47.7981 67.69C48.4048 68.082 48.8808 68.656 49.2261 69.412C49.5715 70.168 49.7441 71.064 49.7441 72.1C49.7441 73.136 49.5715 74.032 49.2261 74.788C48.8808 75.544 48.4048 76.1227 47.7981 76.524C47.2008 76.916 46.5195 77.112 45.7541 77.112ZM45.7541 75.866C46.5381 75.866 47.1635 75.544 47.6301 74.9C48.1061 74.256 48.3441 73.3227 48.3441 72.1C48.3441 70.8773 48.1061 69.944 47.6301 69.3C47.1635 68.656 46.5381 68.334 45.7541 68.334C44.9608 68.334 44.3261 68.656 43.8501 69.3C43.3835 69.944 43.1501 70.8773 43.1501 72.1C43.1501 73.3227 43.3835 74.256 43.8501 74.9C44.3261 75.544 44.9608 75.866 45.7541 75.866Z" fill="#BEBEBE"/>
</svg>
