<svg width="146" height="37" viewBox="0 0 146 37" fill="none" xmlns="http://www.w3.org/2000/svg">
<path d="M17.2388 32.8549L5.21873 20.8348C3.89331 19.5094 3.89332 17.3522 5.21873 16.0268L14.0335 7.21206C15.8012 5.4443 15.8012 2.5691 14.0335 0.80134C13.5903 0.358198 12.8731 0.359 12.4308 0.801339C11.9885 1.24368 11.9877 1.96088 12.4308 2.40402C13.3147 3.2879 13.3147 4.7255 12.4308 5.60938L3.61605 14.4241C1.97651 16.0637 1.5542 18.4669 2.34833 20.4999L1.6127 21.2355C0.0661118 22.7821 0.0661125 25.2983 1.6127 26.8449C3.15929 28.3915 5.67549 28.3915 7.22208 26.8449L7.62275 26.4442L10.0268 28.8482L9.6261 29.2489C8.07951 30.7955 8.07951 33.3117 9.6261 34.8583C11.1727 36.4049 13.6889 36.4049 15.2355 34.8583L15.6362 34.4576C16.0793 34.9008 16.7957 34.9008 17.2388 34.4576C17.682 34.0145 17.682 33.2981 17.2388 32.8549ZM5.6194 25.2422C4.95669 25.9049 3.87809 25.9049 3.21538 25.2422C2.55267 24.5795 2.55267 23.5009 3.21538 22.8382L3.61605 22.4375L6.02007 24.8415L5.6194 25.2422ZM13.6328 33.2556C12.9701 33.9183 11.8915 33.9183 11.2288 33.2556C10.5661 32.5929 10.5661 31.5143 11.2288 30.8516L11.6294 30.4509L14.0335 32.8549L13.6328 33.2556Z" fill="#F37022"/>
<path fill-rule="evenodd" clip-rule="evenodd" d="M28.5643 17.8314L20.4086 14.1175C19.2694 13.5987 17.9253 14.1016 17.4066 15.2409L15.1208 20.2604C14.602 21.3996 15.105 22.7436 16.2442 23.2624L24.3999 26.9763C25.5391 27.4951 26.8832 26.9921 27.402 25.8529L29.6877 20.8334C30.2065 19.6942 29.7035 18.3502 28.5643 17.8314ZM21.3479 12.0547C19.0695 11.0172 16.3814 12.0231 15.3438 14.3015L13.0581 19.321C12.0205 21.5995 13.0265 24.2876 15.3049 25.3251L23.4606 29.0391C25.739 30.0766 28.4271 29.0707 29.4647 26.7923L31.7505 21.7728C32.788 19.4943 31.7821 16.8062 29.5037 15.7687L21.3479 12.0547Z" fill="#F37022"/>
<path fill-rule="evenodd" clip-rule="evenodd" d="M25.1705 16.5229L23.8643 19.434L21.7066 18.4659L23.0127 15.5548L25.1705 16.5229ZM25.9323 20.3618C25.4199 21.5039 24.0786 22.0143 22.9365 21.5019L20.7788 20.5338C19.6367 20.0214 19.1262 18.6802 19.6387 17.5381L21.8726 12.559L28.1662 15.3827L25.9323 20.3618Z" fill="#F37022"/>
<path d="M139.407 27.0496C138.274 27.0496 137.254 26.8162 136.347 26.3496C135.454 25.8696 134.754 25.2096 134.247 24.3696C133.741 23.5296 133.487 22.5762 133.487 21.5096C133.487 20.4429 133.741 19.4896 134.247 18.6496C134.754 17.8096 135.454 17.1562 136.347 16.6896C137.254 16.2096 138.274 15.9696 139.407 15.9696C140.541 15.9696 141.554 16.2096 142.447 16.6896C143.341 17.1562 144.041 17.8096 144.547 18.6496C145.054 19.4896 145.307 20.4429 145.307 21.5096C145.307 22.5762 145.054 23.5296 144.547 24.3696C144.041 25.2096 143.341 25.8696 142.447 26.3496C141.554 26.8162 140.541 27.0496 139.407 27.0496ZM139.407 24.4896C140.207 24.4896 140.861 24.2229 141.367 23.6896C141.887 23.1429 142.147 22.4162 142.147 21.5096C142.147 20.6029 141.887 19.8829 141.367 19.3496C140.861 18.8029 140.207 18.5296 139.407 18.5296C138.607 18.5296 137.947 18.8029 137.427 19.3496C136.907 19.8829 136.647 20.6029 136.647 21.5096C136.647 22.4162 136.907 23.1429 137.427 23.6896C137.947 24.2229 138.607 24.4896 139.407 24.4896Z" fill="#F37022"/>
<path d="M130.146 21.2696C131.413 21.6962 132.046 22.5496 132.046 23.8296C132.046 24.8029 131.679 25.5562 130.946 26.0896C130.213 26.6229 129.119 26.8896 127.666 26.8896H121.926V16.1296H127.426C128.773 16.1296 129.826 16.3762 130.586 16.8696C131.346 17.3496 131.726 18.0296 131.726 18.9096C131.726 19.4429 131.586 19.9162 131.306 20.3296C131.039 20.7296 130.653 21.0429 130.146 21.2696ZM124.786 20.5496H127.146C128.239 20.5496 128.786 20.1629 128.786 19.3896C128.786 18.6296 128.239 18.2496 127.146 18.2496H124.786V20.5496ZM127.406 24.7696C128.553 24.7696 129.126 24.3762 129.126 23.5896C129.126 23.1762 128.993 22.8762 128.726 22.6896C128.459 22.4896 128.039 22.3896 127.466 22.3896H124.786V24.7696H127.406Z" fill="#F37022"/>
<path d="M113.88 27.0496C112.747 27.0496 111.727 26.8162 110.82 26.3496C109.927 25.8696 109.227 25.2096 108.72 24.3696C108.213 23.5296 107.96 22.5762 107.96 21.5096C107.96 20.4429 108.213 19.4896 108.72 18.6496C109.227 17.8096 109.927 17.1562 110.82 16.6896C111.727 16.2096 112.747 15.9696 113.88 15.9696C115.013 15.9696 116.027 16.2096 116.92 16.6896C117.813 17.1562 118.513 17.8096 119.02 18.6496C119.527 19.4896 119.78 20.4429 119.78 21.5096C119.78 22.5762 119.527 23.5296 119.02 24.3696C118.513 25.2096 117.813 25.8696 116.92 26.3496C116.027 26.8162 115.013 27.0496 113.88 27.0496ZM113.88 24.4896C114.68 24.4896 115.333 24.2229 115.84 23.6896C116.36 23.1429 116.62 22.4162 116.62 21.5096C116.62 20.6029 116.36 19.8829 115.84 19.3496C115.333 18.8029 114.68 18.5296 113.88 18.5296C113.08 18.5296 112.42 18.8029 111.9 19.3496C111.38 19.8829 111.12 20.6029 111.12 21.5096C111.12 22.4162 111.38 23.1429 111.9 23.6896C112.42 24.2229 113.08 24.4896 113.88 24.4896Z" fill="#F37022"/>
<path d="M101.293 15.9696C102.293 15.9696 103.2 16.2029 104.013 16.6696C104.84 17.1229 105.487 17.7696 105.953 18.6096C106.42 19.4362 106.653 20.4029 106.653 21.5096C106.653 22.6162 106.42 23.5896 105.953 24.4296C105.487 25.2562 104.84 25.9029 104.013 26.3696C103.2 26.8229 102.293 27.0496 101.293 27.0496C99.9198 27.0496 98.8399 26.6162 98.0532 25.7496V30.7696H94.9332V16.1296H97.9132V17.3696C98.6865 16.4362 99.8132 15.9696 101.293 15.9696ZM100.753 24.4896C101.553 24.4896 102.207 24.2229 102.713 23.6896C103.233 23.1429 103.493 22.4162 103.493 21.5096C103.493 20.6029 103.233 19.8829 102.713 19.3496C102.207 18.8029 101.553 18.5296 100.753 18.5296C99.9532 18.5296 99.2932 18.8029 98.7732 19.3496C98.2665 19.8829 98.0132 20.6029 98.0132 21.5096C98.0132 22.4162 98.2665 23.1429 98.7732 23.6896C99.2932 24.2229 99.9532 24.4896 100.753 24.4896Z" fill="#F37022"/>
<path d="M93.2901 18.6896H89.6501V26.8896H86.5501V18.6896H82.9101V16.1296H93.2901V18.6896Z" fill="#F37022"/>
<path d="M77.5732 27.0496C76.4265 27.0496 75.3932 26.8162 74.4732 26.3496C73.5665 25.8696 72.8532 25.2096 72.3332 24.3696C71.8265 23.5296 71.5732 22.5762 71.5732 21.5096C71.5732 20.4429 71.8265 19.4896 72.3332 18.6496C72.8532 17.8096 73.5665 17.1562 74.4732 16.6896C75.3932 16.2096 76.4265 15.9696 77.5732 15.9696C78.7065 15.9696 79.6932 16.2096 80.5332 16.6896C81.3865 17.1562 82.0065 17.8296 82.3932 18.7096L79.9732 20.0096C79.4132 19.0229 78.6065 18.5296 77.5532 18.5296C76.7399 18.5296 76.0665 18.7962 75.5332 19.3296C74.9999 19.8629 74.7332 20.5896 74.7332 21.5096C74.7332 22.4296 74.9999 23.1562 75.5332 23.6896C76.0665 24.2229 76.7399 24.4896 77.5532 24.4896C78.6199 24.4896 79.4265 23.9962 79.9732 23.0096L82.3932 24.3296C82.0065 25.1829 81.3865 25.8496 80.5332 26.3296C79.6932 26.8096 78.7065 27.0496 77.5732 27.0496Z" fill="#F37022"/>
<path d="M60.9257 19.5696C62.3257 19.5829 63.3857 19.8962 64.1057 20.5096C64.8257 21.1229 65.1857 22.0029 65.1857 23.1496C65.1857 24.3496 64.779 25.2762 63.9657 25.9296C63.1524 26.5829 61.999 26.9096 60.5057 26.9096L55.2657 26.8896V16.1296H58.3657V19.5696H60.9257ZM66.3457 16.1296H69.4457V26.8896H66.3457V16.1296ZM60.2257 24.6896C60.8257 24.7029 61.2857 24.5762 61.6057 24.3096C61.9257 24.0429 62.0857 23.6429 62.0857 23.1096C62.0857 22.5896 61.9257 22.2096 61.6057 21.9696C61.299 21.7296 60.839 21.6029 60.2257 21.5896L58.3657 21.5696V24.6896H60.2257Z" fill="#F37022"/>
<path d="M40.7401 12.8896H52.0401V15.4696H43.9601V18.3496H47.8401C49.5334 18.3496 50.8201 18.7029 51.7001 19.4096C52.5934 20.1162 53.0401 21.1362 53.0401 22.4696C53.0401 23.8696 52.5467 24.9562 51.5601 25.7296C50.5734 26.5029 49.1801 26.8896 47.3801 26.8896H40.7401V12.8896ZM47.2001 24.4896C48.0267 24.4896 48.6601 24.3296 49.1001 24.0096C49.5401 23.6762 49.7601 23.1962 49.7601 22.5696C49.7601 21.3429 48.9067 20.7296 47.2001 20.7296H43.9601V24.4896H47.2001Z" fill="#F37022"/>
</svg>
