<svg width="88" height="88" viewBox="0 0 88 88" fill="none" xmlns="http://www.w3.org/2000/svg">
<g filter="url(#filter0_d_159_1843)">
<circle cx="40" cy="40" r="24" fill="white"/>
<path d="M44.0181 37.4945L38.5936 32.07C38.3722 31.8499 38.0726 31.7263 37.7604 31.7263C37.4482 31.7263 37.1486 31.8499 36.9272 32.07C36.8164 32.1798 36.7285 32.3106 36.6685 32.4546C36.6085 32.5986 36.5776 32.7531 36.5776 32.9091C36.5776 33.0651 36.6085 33.2196 36.6685 33.3636C36.7285 33.5076 36.8164 33.6383 36.9272 33.7482L42.3636 39.1609C42.4744 39.2708 42.5623 39.4015 42.6223 39.5455C42.6823 39.6895 42.7132 39.844 42.7132 40C42.7132 40.156 42.6823 40.3105 42.6223 40.4545C42.5623 40.5985 42.4744 40.7292 42.3636 40.8391L36.9272 46.2518C36.7047 46.4728 36.579 46.7731 36.5779 47.0867C36.5768 47.4003 36.7003 47.7015 36.9213 47.9241C37.1423 48.1466 37.4426 48.2723 37.7562 48.2734C38.0698 48.2745 38.371 48.151 38.5936 47.93L44.0181 42.5054C44.6821 41.8407 45.055 40.9395 45.055 40C45.055 39.0604 44.6821 38.1593 44.0181 37.4945Z" fill="black"/>
</g>
<defs>
<filter id="filter0_d_159_1843" x="0" y="0" width="88" height="88" filterUnits="userSpaceOnUse" color-interpolation-filters="sRGB">
<feFlood flood-opacity="0" result="BackgroundImageFix"/>
<feColorMatrix in="SourceAlpha" type="matrix" values="0 0 0 0 0 0 0 0 0 0 0 0 0 0 0 0 0 0 127 0" result="hardAlpha"/>
<feOffset dx="4" dy="4"/>
<feGaussianBlur stdDeviation="10"/>
<feComposite in2="hardAlpha" operator="out"/>
<feColorMatrix type="matrix" values="0 0 0 0 0 0 0 0 0 0 0 0 0 0 0 0 0 0 0.15 0"/>
<feBlend mode="normal" in2="BackgroundImageFix" result="effect1_dropShadow_159_1843"/>
<feBlend mode="normal" in="SourceGraphic" in2="effect1_dropShadow_159_1843" result="shape"/>
</filter>
</defs>
</svg>
