<svg width="40" height="40" viewBox="0 0 40 40" fill="none" xmlns="http://www.w3.org/2000/svg">
<circle cx="20" cy="20" r="20" fill="#D9D9D9"/>
<g clip-path="url(#clip0_41_365)">
<path d="M12.7813 24.746C12.2812 25.246 12.0002 25.9241 12 26.6313V28H13.3687C14.0759 27.9998 14.754 27.7188 15.254 27.2187L24.1493 18.3233L21.6767 15.8507L12.7813 24.746Z" fill="black"/>
<path d="M27.4298 12.57C27.2675 12.4075 27.0747 12.2786 26.8625 12.1906C26.6503 12.1027 26.4228 12.0574 26.1931 12.0574C25.9634 12.0574 25.736 12.1027 25.5238 12.1906C25.3116 12.2786 25.1188 12.4075 24.9565 12.57L22.6191 14.908L25.0918 17.3807L27.4298 15.0433C27.5923 14.881 27.7212 14.6882 27.8092 14.476C27.8972 14.2638 27.9424 14.0364 27.9424 13.8067C27.9424 13.577 27.8972 13.3495 27.8092 13.1373C27.7212 12.9251 27.5923 12.7323 27.4298 12.57Z" fill="black"/>
</g>
<defs>
<clipPath id="clip0_41_365">
<rect width="16" height="16" fill="white" transform="translate(12 12)"/>
</clipPath>
</defs>
</svg>
