<svg width="158" height="97" viewBox="0 0 158 97" fill="none" xmlns="http://www.w3.org/2000/svg">
<g filter="url(#filter0_d_169_2017)">
<rect x="16" y="28" width="118" height="45" rx="8" fill="white"/>
<path d="M37.7129 44.148C38.7809 44.148 39.6749 44.25 40.3949 44.454C41.1269 44.658 41.6729 44.994 42.0329 45.462C42.4049 45.93 42.5909 46.554 42.5909 47.334C42.5909 47.838 42.4949 48.288 42.3029 48.684C42.1229 49.068 41.8469 49.392 41.4749 49.656C41.1149 49.908 40.6709 50.082 40.1429 50.178V50.268C40.6829 50.352 41.1689 50.508 41.6009 50.736C42.0449 50.964 42.3929 51.288 42.6449 51.708C42.8969 52.128 43.0229 52.674 43.0229 53.346C43.0229 54.126 42.8429 54.792 42.4829 55.344C42.1229 55.884 41.6069 56.298 40.9349 56.586C40.2749 56.862 39.4829 57 38.5589 57H34.0409V44.148H37.7129ZM38.0369 49.62C39.1409 49.62 39.8969 49.446 40.3049 49.098C40.7129 48.738 40.9169 48.21 40.9169 47.514C40.9169 46.806 40.6649 46.302 40.1609 46.002C39.6689 45.69 38.8769 45.534 37.7849 45.534H35.6609V49.62H38.0369ZM35.6609 50.97V55.632H38.2529C39.3929 55.632 40.1849 55.41 40.6289 54.966C41.0729 54.522 41.2949 53.94 41.2949 53.22C41.2949 52.764 41.1929 52.368 40.9889 52.032C40.7969 51.696 40.4669 51.438 39.9989 51.258C39.5429 51.066 38.9189 50.97 38.1269 50.97H35.6609ZM45.532 57V47.352H47.116V51.312H49.618C50.458 51.312 51.148 51.414 51.688 51.618C52.228 51.822 52.63 52.128 52.894 52.536C53.158 52.932 53.29 53.436 53.29 54.048C53.29 54.648 53.158 55.17 52.894 55.614C52.642 56.058 52.24 56.4 51.688 56.64C51.148 56.88 50.434 57 49.546 57H45.532ZM49.402 55.722C50.086 55.722 50.644 55.608 51.076 55.38C51.508 55.14 51.724 54.726 51.724 54.138C51.724 53.55 51.526 53.154 51.13 52.95C50.734 52.734 50.164 52.626 49.42 52.626H47.116V55.722H49.402ZM54.892 57V47.352H56.476V57H54.892ZM67.3537 43.356C67.3057 43.956 67.1557 44.46 66.9037 44.868C66.6637 45.276 66.3037 45.582 65.8237 45.786C65.3437 45.99 64.7197 46.092 63.9517 46.092C63.1717 46.092 62.5417 45.99 62.0617 45.786C61.5937 45.582 61.2517 45.282 61.0357 44.886C60.8197 44.478 60.6877 43.968 60.6397 43.356H62.1157C62.1757 44.004 62.3437 44.442 62.6197 44.67C62.9077 44.886 63.3637 44.994 63.9877 44.994C64.5397 44.994 64.9717 44.88 65.2837 44.652C65.6077 44.412 65.7997 43.98 65.8597 43.356H67.3537ZM61.0357 53.238C61.0357 53.346 61.0297 53.502 61.0177 53.706C61.0177 53.898 61.0117 54.108 60.9997 54.336C60.9877 54.552 60.9757 54.762 60.9637 54.966C60.9517 55.158 60.9397 55.314 60.9277 55.434L66.0937 47.352H68.0377V57H66.5617V51.312C66.5617 51.12 66.5617 50.868 66.5617 50.556C66.5737 50.244 66.5857 49.938 66.5977 49.638C66.6097 49.326 66.6217 49.092 66.6337 48.936L61.5037 57H59.5417V47.352H61.0357V53.238ZM77.7681 48.684H74.6181V57H73.0521V48.684H69.9381V47.352H77.7681V48.684ZM81.1627 53.238C81.1627 53.346 81.1567 53.502 81.1447 53.706C81.1447 53.898 81.1387 54.108 81.1267 54.336C81.1147 54.552 81.1027 54.762 81.0907 54.966C81.0787 55.158 81.0667 55.314 81.0547 55.434L86.2207 47.352H88.1647V57H86.6887V51.312C86.6887 51.12 86.6887 50.868 86.6887 50.556C86.7007 50.244 86.7127 49.938 86.7247 49.638C86.7367 49.326 86.7487 49.092 86.7607 48.936L81.6307 57H79.6687V47.352H81.1627V53.238Z" fill="#E81414"/>
<g clip-path="url(#clip0_169_2017)">
<path d="M117.122 48.379L114.212 45.4698C114.071 45.3331 113.882 45.2575 113.685 45.2592C113.488 45.261 113.3 45.3398 113.161 45.4789C113.022 45.6179 112.943 45.8061 112.941 46.0027C112.94 46.1993 113.015 46.3888 113.152 46.5303L116.061 49.4395C116.148 49.5276 116.223 49.6258 116.286 49.732C116.275 49.732 116.266 49.726 116.255 49.726L104.492 49.75C104.293 49.75 104.102 49.829 103.961 49.9697C103.821 50.1103 103.742 50.3011 103.742 50.5C103.742 50.6989 103.821 50.8897 103.961 51.0303C104.102 51.171 104.293 51.25 104.492 51.25L116.25 51.226C116.271 51.226 116.288 51.2155 116.309 51.214C116.242 51.3409 116.158 51.4576 116.058 51.5605L113.149 54.4698C113.077 54.5389 113.02 54.6217 112.981 54.7132C112.942 54.8047 112.921 54.9031 112.92 55.0027C112.919 55.1023 112.938 55.201 112.976 55.2932C113.014 55.3854 113.069 55.4691 113.14 55.5395C113.21 55.61 113.294 55.6657 113.386 55.7034C113.478 55.7411 113.577 55.7601 113.677 55.7592C113.776 55.7583 113.875 55.7376 113.966 55.6983C114.058 55.659 114.14 55.6019 114.209 55.5303L117.119 52.621C117.681 52.0584 117.997 51.2955 117.997 50.5C117.997 49.7045 117.681 48.9416 117.119 48.379H117.122Z" fill="#E81414"/>
<path d="M105.25 58H103.75C103.153 58 102.581 57.7629 102.159 57.341C101.737 56.919 101.5 56.3467 101.5 55.75V45.25C101.5 44.6533 101.737 44.081 102.159 43.659C102.581 43.2371 103.153 43 103.75 43H105.25C105.449 43 105.64 42.921 105.78 42.7803C105.921 42.6397 106 42.4489 106 42.25C106 42.0511 105.921 41.8603 105.78 41.7197C105.64 41.579 105.449 41.5 105.25 41.5H103.75C102.756 41.5012 101.803 41.8967 101.1 42.5997C100.397 43.3027 100.001 44.2558 100 45.25V55.75C100.001 56.7442 100.397 57.6973 101.1 58.4003C101.803 59.1033 102.756 59.4988 103.75 59.5H105.25C105.449 59.5 105.64 59.421 105.78 59.2803C105.921 59.1397 106 58.9489 106 58.75C106 58.5511 105.921 58.3603 105.78 58.2197C105.64 58.079 105.449 58 105.25 58Z" fill="#E81414"/>
</g>
<path d="M35.8899 17.606C37.0391 15.578 39.9609 15.5781 41.1101 17.606L47 28H30L35.8899 17.606Z" fill="white"/>
</g>
<defs>
<filter id="filter0_d_169_2017" x="0" y="0.0850372" width="158" height="96.915" filterUnits="userSpaceOnUse" color-interpolation-filters="sRGB">
<feFlood flood-opacity="0" result="BackgroundImageFix"/>
<feColorMatrix in="SourceAlpha" type="matrix" values="0 0 0 0 0 0 0 0 0 0 0 0 0 0 0 0 0 0 127 0" result="hardAlpha"/>
<feOffset dx="4" dy="4"/>
<feGaussianBlur stdDeviation="10"/>
<feComposite in2="hardAlpha" operator="out"/>
<feColorMatrix type="matrix" values="0 0 0 0 0 0 0 0 0 0 0 0 0 0 0 0 0 0 0.15 0"/>
<feBlend mode="normal" in2="BackgroundImageFix" result="effect1_dropShadow_169_2017"/>
<feBlend mode="normal" in="SourceGraphic" in2="effect1_dropShadow_169_2017" result="shape"/>
</filter>
<clipPath id="clip0_169_2017">
<rect width="18" height="18" fill="white" transform="translate(100 41.5)"/>
</clipPath>
</defs>
</svg>
