<svg width="40" height="40" viewBox="0 0 40 40" fill="none" xmlns="http://www.w3.org/2000/svg">
<circle cx="20" cy="20" r="20" fill="#D9D9D9"/>
<g clip-path="url(#clip0_41_364)">
<path d="M21.2377 20.0002L26.7441 14.4944C27.0859 14.1526 27.0859 13.5984 26.7441 13.2566C26.4023 12.9148 25.8481 12.9148 25.5063 13.2566L20.0005 18.763L14.4946 13.2566C14.1528 12.9148 13.5986 12.9148 13.2568 13.2566C12.9151 13.5984 12.915 14.1526 13.2568 14.4944L18.7633 20.0002L13.2568 25.5061C12.915 25.8479 12.915 26.4021 13.2568 26.7439C13.5987 27.0857 14.1528 27.0857 14.4946 26.7439L20.0005 21.2374L25.5063 26.7439C25.8481 27.0857 26.4023 27.0857 26.7441 26.7439C27.0859 26.4021 27.0859 25.8479 26.7441 25.5061L21.2377 20.0002Z" fill="black"/>
</g>
<defs>
<clipPath id="clip0_41_364">
<rect width="14" height="14" fill="white" transform="translate(13 13)"/>
</clipPath>
</defs>
</svg>
