<svg width="20" height="20" viewBox="0 0 20 20" fill="none" xmlns="http://www.w3.org/2000/svg">
<g clip-path="url(#clip0_80_65)">
<path d="M19.1667 7.5C19.3877 7.5 19.5996 7.4122 19.7559 7.25592C19.9122 7.09964 20 6.88768 20 6.66667V2.5C20 1.83696 19.7366 1.20107 19.2678 0.732233C18.7989 0.263392 18.163 0 17.5 0L13.3333 0C13.1123 0 12.9004 0.0877974 12.7441 0.244078C12.5878 0.400358 12.5 0.61232 12.5 0.833333C12.5 1.05435 12.5878 1.26631 12.7441 1.42259C12.9004 1.57887 13.1123 1.66667 13.3333 1.66667H17.155L10 8.82167L2.845 1.66667H6.66667C6.88768 1.66667 7.09964 1.57887 7.25592 1.42259C7.4122 1.26631 7.5 1.05435 7.5 0.833333C7.5 0.61232 7.4122 0.400358 7.25592 0.244078C7.09964 0.0877974 6.88768 0 6.66667 0L2.5 0C1.83696 0 1.20107 0.263392 0.732233 0.732233C0.263392 1.20107 0 1.83696 0 2.5L0 6.66667C0 6.88768 0.0877974 7.09964 0.244078 7.25592C0.400358 7.4122 0.61232 7.5 0.833333 7.5C1.05435 7.5 1.26631 7.4122 1.42259 7.25592C1.57887 7.09964 1.66667 6.88768 1.66667 6.66667V2.845L8.82167 10L1.66667 17.155V13.3333C1.66667 13.1123 1.57887 12.9004 1.42259 12.7441C1.26631 12.5878 1.05435 12.5 0.833333 12.5C0.61232 12.5 0.400358 12.5878 0.244078 12.7441C0.0877974 12.9004 0 13.1123 0 13.3333L0 17.5C0 18.163 0.263392 18.7989 0.732233 19.2678C1.20107 19.7366 1.83696 20 2.5 20H6.66667C6.88768 20 7.09964 19.9122 7.25592 19.7559C7.4122 19.5996 7.5 19.3877 7.5 19.1667C7.5 18.9457 7.4122 18.7337 7.25592 18.5774C7.09964 18.4211 6.88768 18.3333 6.66667 18.3333H2.845L10 11.1783L17.155 18.3333H13.3333C13.1123 18.3333 12.9004 18.4211 12.7441 18.5774C12.5878 18.7337 12.5 18.9457 12.5 19.1667C12.5 19.3877 12.5878 19.5996 12.7441 19.7559C12.9004 19.9122 13.1123 20 13.3333 20H17.5C18.163 20 18.7989 19.7366 19.2678 19.2678C19.7366 18.7989 20 18.163 20 17.5V13.3333C20 13.1123 19.9122 12.9004 19.7559 12.7441C19.5996 12.5878 19.3877 12.5 19.1667 12.5C18.9457 12.5 18.7337 12.5878 18.5774 12.7441C18.4211 12.9004 18.3333 13.1123 18.3333 13.3333V17.155L11.1783 10L18.3333 2.845V6.66667C18.3333 6.88768 18.4211 7.09964 18.5774 7.25592C18.7337 7.4122 18.9457 7.5 19.1667 7.5Z" fill="black"/>
</g>
<defs>
<clipPath id="clip0_80_65">
<rect width="20" height="20" fill="white"/>
</clipPath>
</defs>
</svg>
