<svg width="54" height="54" viewBox="0 0 54 54" fill="none" xmlns="http://www.w3.org/2000/svg">
<circle cx="27" cy="27" r="27" fill="#D9D9D9"/>
<g clip-path="url(#clip0_41_919)">
<path d="M27 27C27.9889 27 28.9556 26.7068 29.7779 26.1573C30.6001 25.6079 31.241 24.827 31.6194 23.9134C31.9978 22.9998 32.0969 21.9945 31.9039 21.0246C31.711 20.0546 31.2348 19.1637 30.5355 18.4645C29.8363 17.7652 28.9454 17.289 27.9755 17.0961C27.0055 16.9031 26.0002 17.0022 25.0866 17.3806C24.173 17.759 23.3921 18.3999 22.8427 19.2222C22.2932 20.0444 22 21.0111 22 22C22.0013 23.3257 22.5285 24.5967 23.4659 25.5341C24.4033 26.4715 25.6743 26.9987 27 27ZM27 18.6667C27.6593 18.6667 28.3037 18.8622 28.8519 19.2284C29.4001 19.5947 29.8273 20.1153 30.0796 20.7244C30.3319 21.3335 30.3979 22.0037 30.2693 22.6503C30.1407 23.2969 29.8232 23.8909 29.357 24.357C28.8908 24.8232 28.2969 25.1407 27.6503 25.2693C27.0037 25.3979 26.3335 25.3319 25.7244 25.0796C25.1153 24.8273 24.5947 24.4001 24.2284 23.8519C23.8622 23.3037 23.6667 22.6593 23.6667 22C23.6667 21.1159 24.0179 20.2681 24.643 19.643C25.2681 19.0179 26.1159 18.6667 27 18.6667Z" fill="black"/>
<path d="M27 28.6667C25.0116 28.6689 23.1052 29.4598 21.6991 30.8658C20.2931 32.2719 19.5022 34.1782 19.5 36.1667C19.5 36.3877 19.5878 36.5996 19.7441 36.7559C19.9004 36.9122 20.1123 37 20.3333 37C20.5543 37 20.7663 36.9122 20.9226 36.7559C21.0789 36.5996 21.1667 36.3877 21.1667 36.1667C21.1667 34.6196 21.7812 33.1358 22.8752 32.0419C23.9692 30.9479 25.4529 30.3333 27 30.3333C28.5471 30.3333 30.0308 30.9479 31.1248 32.0419C32.2188 33.1358 32.8333 34.6196 32.8333 36.1667C32.8333 36.3877 32.9211 36.5996 33.0774 36.7559C33.2337 36.9122 33.4457 37 33.6667 37C33.8877 37 34.0996 36.9122 34.2559 36.7559C34.4122 36.5996 34.5 36.3877 34.5 36.1667C34.4978 34.1782 33.7069 32.2719 32.3009 30.8658C30.8948 29.4598 28.9884 28.6689 27 28.6667Z" fill="black"/>
</g>
<defs>
<clipPath id="clip0_41_919">
<rect width="20" height="20" fill="white" transform="translate(17 17)"/>
</clipPath>
</defs>
</svg>
