<svg width="54" height="54" viewBox="0 0 54 54" fill="none" xmlns="http://www.w3.org/2000/svg">
<circle cx="27" cy="27" r="27" fill="#D9D9D9"/>
<g clip-path="url(#clip0_14_6)">
<path d="M36.3824 30.5L34.2158 22.6908C33.7531 21.0203 32.745 19.5526 31.3518 18.5212C29.9587 17.4899 28.2606 16.9541 26.5278 16.9992C24.795 17.0444 23.1271 17.6678 21.7896 18.7703C20.452 19.8728 19.5217 21.391 19.1466 23.0833L17.4708 30.625C17.3897 30.9904 17.3917 31.3693 17.4766 31.7338C17.5614 32.0983 17.7271 32.4391 17.9613 32.731C18.1955 33.0229 18.4922 33.2586 18.8296 33.4205C19.167 33.5825 19.5365 33.6666 19.9108 33.6667H22.9166C23.1079 34.6086 23.6189 35.4554 24.363 36.0636C25.1072 36.6719 26.0388 37.0042 26.9999 37.0042C27.9611 37.0042 28.8926 36.6719 29.6368 36.0636C30.381 35.4554 30.892 34.6086 31.0833 33.6667H33.9749C34.36 33.6665 34.7399 33.5774 35.0848 33.4062C35.4298 33.2351 35.7306 32.9866 35.9637 32.68C36.1968 32.3735 36.356 32.0173 36.4287 31.6391C36.5015 31.261 36.4851 30.8711 36.3824 30.5ZM26.9999 35.3333C26.4847 35.3312 25.9827 35.1699 25.5627 34.8716C25.1426 34.5733 24.825 34.1524 24.6533 33.6667H29.3466C29.1749 34.1524 28.8572 34.5733 28.4372 34.8716C28.0171 35.1699 27.5151 35.3312 26.9999 35.3333ZM34.6374 31.6708C34.5597 31.7739 34.4589 31.8573 34.3431 31.9145C34.2274 31.9717 34.0999 32.0009 33.9708 32H19.9108C19.786 32 19.6628 31.9719 19.5503 31.9179C19.4378 31.8639 19.3389 31.7854 19.2608 31.688C19.1827 31.5907 19.1275 31.477 19.0993 31.3555C19.071 31.234 19.0704 31.1076 19.0974 30.9858L20.7733 23.4442C21.0686 22.116 21.7994 20.9247 22.8495 20.0595C23.8996 19.1944 25.2088 18.7051 26.5689 18.6695C27.929 18.6339 29.262 19.0539 30.356 19.8629C31.45 20.6718 32.2422 21.8233 32.6066 23.1342L34.7733 30.9433C34.8086 31.0668 34.8148 31.1968 34.7912 31.3231C34.7676 31.4494 34.715 31.5684 34.6374 31.6708Z" fill="black"/>
</g>
<defs>
<clipPath id="clip0_14_6">
<rect width="20" height="20" fill="white" transform="translate(17 17)"/>
</clipPath>
</defs>
</svg>
